<svg width="61" height="49" viewBox="0 0 61 49" fill="none" xmlns="http://www.w3.org/2000/svg">
<g clip-path="url(#clip0)">
<path d="M40.5745 24.4999C38.9637 24.4999 37.4483 23.6385 36.6286 22.2604L30.5 12.0585L24.3809 22.2604C23.5517 23.6481 22.0362 24.5094 20.4255 24.5094C19.9966 24.5094 19.5677 24.452 19.1578 24.3276L6.1 20.576V37.6112C6.1 39.018 7.05313 40.243 8.40656 40.578L29.0131 45.7555C29.9853 45.9948 31.0051 45.9948 31.9678 45.7555L52.5934 40.578C53.9469 40.2335 54.9 39.0085 54.9 37.6112V20.576L41.8422 24.318C41.4323 24.4425 41.0034 24.4999 40.5745 24.4999ZM60.8379 13.762L55.9294 3.9237C55.6339 3.33034 54.9953 2.98581 54.3376 3.07195L30.5 6.12488L39.2401 20.6813C39.6023 21.2843 40.3267 21.5714 41.0034 21.38L59.8658 15.9727C60.8094 15.6952 61.2669 14.6425 60.8379 13.762V13.762ZM5.07063 3.9237L0.162037 13.762C-0.2764 14.6425 0.190631 15.6952 1.12469 15.9632L19.987 21.3704C20.6637 21.5618 21.3881 21.2747 21.7503 20.6717L30.5 6.12488L6.65282 3.07195C5.99516 2.99538 5.3661 3.33034 5.07063 3.9237V3.9237Z" fill="white"/>
</g>
<defs>
<clipPath id="clip0">
<rect width="61" height="49" fill="white"/>
</clipPath>
</defs>
</svg>
