<svg width="73" height="73" viewBox="0 0 73 73" fill="none" xmlns="http://www.w3.org/2000/svg">
<g clip-path="url(#clip0)">
<path d="M72.0012 24.9223L66.3551 19.2762C65.0149 17.936 62.8477 17.936 61.5217 19.2762L27.3743 53.4237L11.4911 37.5262C10.1508 36.186 7.98366 36.186 6.65768 37.5262L0.997332 43.1866C-0.342902 44.5268 -0.342902 46.694 0.997332 48.0342L24.9505 72.0016C26.2907 73.3418 28.4579 73.3418 29.7838 72.0016L71.987 29.77C73.3272 28.4155 73.3272 26.2483 72.0012 24.9223ZM25.7631 40.0356C26.6471 40.9338 28.1014 40.9338 28.9854 40.0356L58.6417 10.3508C59.5256 9.45259 59.5256 8.01255 58.6417 7.12856L52.1971 0.669775C51.3131 -0.228467 49.8588 -0.228467 48.9749 0.669775L27.3743 22.2704L19.4755 14.3573C18.5915 13.459 17.1372 13.459 16.2532 14.3573L9.7944 20.8161C8.91042 21.7143 8.91042 23.1543 9.7944 24.0383L25.7631 40.0356Z" fill="white"/>
</g>
<defs>
<clipPath id="clip0">
<rect width="73" height="73" fill="white"/>
</clipPath>
</defs>
</svg>
