<svg width="55" height="49" viewBox="0 0 55 49" fill="none" xmlns="http://www.w3.org/2000/svg">
<path d="M46.3585 0L55 15.3125H45.3464L38.7387 0H46.3585ZM34.1363 0L40.7439 15.3125H14.2561L20.8637 0H34.1363ZM8.64149 0H16.2613L9.65365 15.3125H0L8.64149 0ZM0 18.375H9.61545L21.3602 42.4635C21.5035 42.7602 21.1024 43.0281 20.8828 42.7793L0 18.375ZM14.151 18.375H40.849L27.7674 48.8277C27.6719 49.0574 27.3377 49.0574 27.2422 48.8277L14.151 18.375ZM33.6398 42.4635L45.3845 18.375H55L34.1172 42.7697C33.8976 43.0281 33.4965 42.7602 33.6398 42.4635Z" fill="white"/>
</svg>
