<svg width="57" height="57" viewBox="0 0 57 57" fill="none" xmlns="http://www.w3.org/2000/svg">
<path d="M57 51.6563C57 54.6076 54.6076 57 51.6562 57H5.34375C2.39244 57 0 54.6076 0 51.6563V22.3462C9.84379e-06 21.5359 0.184303 20.7362 0.538937 20.0076C0.893572 19.279 1.40926 18.6406 2.04699 18.1407C4.82051 15.9666 7.11253 14.2036 20.3271 4.61312C22.2002 3.24746 25.9169 -0.0386136 28.5 0.000351279C31.0826 -0.0390589 34.8007 3.24802 36.6729 4.61301C49.8861 14.2025 52.1813 15.9679 54.953 18.1407C55.5907 18.6406 56.1064 19.279 56.4611 20.0076C56.8157 20.7362 57 21.5359 57 22.3462V51.6563ZM49.6895 29.7686C49.4042 29.3536 48.8323 29.257 48.4272 29.5563C45.8839 31.4347 42.2527 34.0879 36.6729 38.1374C34.7998 39.5029 31.0831 42.7888 28.5 42.7497C25.916 42.788 22.2034 39.5052 20.3271 38.1374C14.748 34.0884 11.1164 31.435 8.57282 29.5563C8.1677 29.257 7.59581 29.3536 7.31047 29.7686L6.3005 31.2377C6.16959 31.428 6.11777 31.6617 6.15597 31.8896C6.19417 32.1174 6.31941 32.3214 6.50524 32.4586C9.0532 34.34 12.6788 36.9886 18.2284 41.0162C20.4855 42.6617 24.5211 46.3391 28.5 46.3124C32.4771 46.3393 36.5113 42.6641 38.7715 41.0162C44.3212 36.9885 47.9469 34.3398 50.4947 32.4586C50.6805 32.3214 50.8057 32.1174 50.8439 31.8896C50.8821 31.6617 50.8303 31.428 50.6994 31.2377L49.6895 29.7686Z" fill="#0F0F14"/>
</svg>
