<svg width="53" height="76" viewBox="0 0 53 76" fill="none" xmlns="http://www.w3.org/2000/svg">
<path d="M26.3863 11.825C18.4494 11.825 11.9938 18.1899 11.9938 26.0151C11.9938 27.3218 13.0672 28.3801 14.3925 28.3801C15.7178 28.3801 16.7913 27.3218 16.7913 26.0151C16.7913 20.7973 21.097 16.5551 26.3863 16.5551C27.7116 16.5551 28.785 15.4967 28.785 14.1901C28.785 12.8834 27.7116 11.825 26.3863 11.825ZM14.4015 67.8713C14.4015 68.337 14.5409 68.7907 14.8033 69.178L18.4779 74.6234C18.9232 75.2827 19.6728 75.6788 20.4749 75.6788H32.2962C33.0998 75.6788 33.8494 75.2827 34.2932 74.6234L37.9678 69.178C38.2286 68.7907 38.3681 68.3355 38.3696 67.8713L38.3771 61.4888H14.3955L14.4015 67.8713ZM26.3863 0C11.0523 0 0 12.2641 0 26.0151C0 32.5736 2.46622 38.557 6.53061 43.1289C9.02531 45.9359 12.9383 51.8203 14.3895 56.7514V56.7602H21.5858V56.7425C21.5843 56.0374 21.4778 55.3368 21.2635 54.6628C20.4254 52.0302 17.8422 45.0889 11.9428 38.4521C8.86339 34.9888 7.21725 30.5958 7.20376 26.0151C7.17377 15.1301 16.1496 7.09503 26.3863 7.09503C36.9678 7.09503 45.5763 15.5825 45.5763 26.0151C45.5763 30.5929 43.8912 35.0095 40.8313 38.4521C34.9678 45.046 32.3727 51.9726 31.5211 54.6317C31.3014 55.3154 31.1891 56.0283 31.1883 56.7455V56.7602H38.3846V56.7528C39.8358 51.8203 43.7488 45.9359 46.2435 43.1304C50.3064 38.5571 52.7726 32.5736 52.7726 26.0151C52.7726 11.6477 40.9587 0 26.3863 0Z" fill="white"/>
</svg>
