<svg width="162" height="47" viewBox="0 0 162 47" fill="none" xmlns="http://www.w3.org/2000/svg">
<path d="M140 5L159.053 36.5H120.947L140 5Z" fill="white"/>
<path d="M21.222 13.238H13.59V35H8.172V13.238H0.54V8.882H21.222V13.238ZM24.9601 19.502C25.5481 18.446 26.2261 17.612 26.9941 17C27.7621 16.388 28.6621 16.082 29.6941 16.082C30.5341 16.082 31.2181 16.28 31.7461 16.676L31.4221 20.348C31.3621 20.588 31.2661 20.756 31.1341 20.852C31.0141 20.936 30.8461 20.978 30.6301 20.978C30.4381 20.978 30.1621 20.954 29.8021 20.906C29.4421 20.846 29.1061 20.816 28.7941 20.816C28.3381 20.816 27.9301 20.882 27.5701 21.014C27.2221 21.146 26.9101 21.332 26.6341 21.572C26.3581 21.812 26.1061 22.106 25.8781 22.454C25.6621 22.802 25.4581 23.198 25.2661 23.642V35H20.2981V16.442H23.2321C23.7361 16.442 24.0841 16.532 24.2761 16.712C24.4681 16.892 24.6061 17.204 24.6901 17.648L24.9601 19.502ZM38.9804 16.442V35H34.0124V16.442H38.9804ZM39.5744 11.168C39.5744 11.588 39.4904 11.978 39.3224 12.338C39.1544 12.698 38.9264 13.016 38.6384 13.292C38.3624 13.568 38.0324 13.784 37.6484 13.94C37.2764 14.096 36.8744 14.174 36.4424 14.174C36.0344 14.174 35.6444 14.096 35.2724 13.94C34.9124 13.784 34.5944 13.568 34.3184 13.292C34.0424 13.016 33.8204 12.698 33.6524 12.338C33.4964 11.978 33.4184 11.588 33.4184 11.168C33.4184 10.748 33.4964 10.358 33.6524 9.998C33.8204 9.626 34.0424 9.302 34.3184 9.026C34.5944 8.75 34.9124 8.534 35.2724 8.378C35.6444 8.222 36.0344 8.144 36.4424 8.144C36.8744 8.144 37.2764 8.222 37.6484 8.378C38.0324 8.534 38.3624 8.75 38.6384 9.026C38.9264 9.302 39.1544 9.626 39.3224 9.998C39.4904 10.358 39.5744 10.748 39.5744 11.168ZM78.829 8.882L70.729 35H65.851L60.505 17.918C60.421 17.678 60.337 17.414 60.253 17.126C60.169 16.838 60.091 16.532 60.019 16.208C59.947 16.532 59.869 16.838 59.785 17.126C59.701 17.414 59.617 17.678 59.533 17.918L54.133 35H49.237L41.155 8.882H45.691C46.159 8.882 46.549 8.99 46.861 9.206C47.185 9.422 47.395 9.71 47.491 10.07L51.541 24.794C51.637 25.202 51.733 25.646 51.829 26.126C51.937 26.594 52.039 27.092 52.135 27.62C52.243 27.08 52.357 26.576 52.477 26.108C52.597 25.64 52.729 25.202 52.873 24.794L57.589 10.07C57.685 9.77 57.889 9.5 58.201 9.26C58.525 9.008 58.915 8.882 59.371 8.882H60.955C61.423 8.882 61.801 8.996 62.089 9.224C62.389 9.44 62.611 9.722 62.755 10.07L67.453 24.794C67.597 25.178 67.729 25.598 67.849 26.054C67.969 26.498 68.083 26.972 68.191 27.476C68.287 26.972 68.377 26.498 68.461 26.054C68.557 25.598 68.653 25.178 68.749 24.794L72.799 10.07C72.883 9.758 73.087 9.482 73.411 9.242C73.735 9.002 74.125 8.882 74.581 8.882H78.829ZM90.5701 23.534C90.5701 23.018 90.4981 22.526 90.3541 22.058C90.2221 21.59 90.0061 21.176 89.7061 20.816C89.4061 20.456 89.0281 20.174 88.5721 19.97C88.1161 19.754 87.5701 19.646 86.9341 19.646C85.7461 19.646 84.8161 19.982 84.1441 20.654C83.4721 21.326 83.0341 22.286 82.8301 23.534H90.5701ZM82.7581 26.486C82.9141 28.226 83.4061 29.498 84.2341 30.302C85.0741 31.106 86.1661 31.508 87.5101 31.508C88.1941 31.508 88.7821 31.43 89.2741 31.274C89.7781 31.106 90.2161 30.926 90.5881 30.734C90.9721 30.53 91.3141 30.35 91.6141 30.194C91.9261 30.026 92.2321 29.942 92.5321 29.942C92.9161 29.942 93.2161 30.086 93.4321 30.374L94.8721 32.174C94.3441 32.786 93.7621 33.296 93.1261 33.704C92.4901 34.1 91.8301 34.418 91.1461 34.658C90.4621 34.886 89.7721 35.042 89.0761 35.126C88.3801 35.222 87.7081 35.27 87.0601 35.27C85.7641 35.27 84.5521 35.06 83.4241 34.64C82.3081 34.208 81.3301 33.578 80.4901 32.75C79.6621 31.91 79.0081 30.872 78.5281 29.636C78.0481 28.4 77.8081 26.966 77.8081 25.334C77.8081 24.074 78.0121 22.886 78.4201 21.77C78.8401 20.654 79.4401 19.682 80.2201 18.854C81.0001 18.026 81.9481 17.372 83.0641 16.892C84.1801 16.4 85.4401 16.154 86.8441 16.154C88.0321 16.154 89.1241 16.346 90.1201 16.73C91.1281 17.102 91.9921 17.648 92.7121 18.368C93.4441 19.088 94.0081 19.976 94.4041 21.032C94.8121 22.076 95.0161 23.27 95.0161 24.614C95.0161 24.986 94.9981 25.292 94.9621 25.532C94.9261 25.772 94.8661 25.964 94.7821 26.108C94.6981 26.252 94.5841 26.354 94.4401 26.414C94.2961 26.462 94.1101 26.486 93.8821 26.486H82.7581ZM103.067 30.104C103.535 30.644 104.039 31.022 104.579 31.238C105.131 31.454 105.701 31.562 106.289 31.562C106.901 31.562 107.453 31.454 107.945 31.238C108.449 31.01 108.881 30.656 109.241 30.176C109.601 29.684 109.877 29.048 110.069 28.268C110.261 27.488 110.357 26.546 110.357 25.442C110.357 24.458 110.279 23.624 110.123 22.94C109.967 22.244 109.733 21.674 109.421 21.23C109.121 20.786 108.749 20.462 108.305 20.258C107.861 20.054 107.345 19.952 106.757 19.952C105.977 19.952 105.299 20.126 104.723 20.474C104.159 20.81 103.607 21.308 103.067 21.968V30.104ZM103.067 18.584C103.799 17.852 104.609 17.264 105.497 16.82C106.385 16.376 107.381 16.154 108.485 16.154C109.553 16.154 110.513 16.37 111.365 16.802C112.229 17.222 112.961 17.828 113.561 18.62C114.173 19.412 114.641 20.372 114.965 21.5C115.301 22.616 115.469 23.87 115.469 25.262C115.469 26.762 115.277 28.13 114.893 29.366C114.521 30.59 113.987 31.64 113.291 32.516C112.595 33.392 111.761 34.07 110.789 34.55C109.829 35.03 108.755 35.27 107.567 35.27C106.991 35.27 106.475 35.21 106.019 35.09C105.563 34.982 105.143 34.826 104.759 34.622C104.375 34.418 104.021 34.178 103.697 33.902C103.373 33.614 103.067 33.296 102.779 32.948L102.581 34.064C102.497 34.412 102.359 34.658 102.167 34.802C101.975 34.934 101.717 35 101.393 35H98.0989V8.162H103.067V18.584Z" fill="white"/>
</svg>
