<svg width="49" height="81" viewBox="0 0 49 81" fill="none" xmlns="http://www.w3.org/2000/svg">
<g clip-path="url(#clip0)">
<path d="M35.2328 36.9246L17.4562 31.9254C15.3987 31.3559 13.9667 29.5049 13.9667 27.4482C13.9667 24.8695 16.1394 22.7812 18.8224 22.7812H29.7353C31.7434 22.7812 33.7185 23.3666 35.3645 24.4424C36.3686 25.091 37.7183 24.9328 38.5742 24.126L44.3022 18.7471C45.4708 17.6555 45.3062 15.8361 44.0059 14.8711C39.9733 11.8336 34.9366 10.1408 29.7682 10.125V2.53125C29.7682 1.13906 28.5831 0 27.1346 0H21.8675C20.419 0 19.2339 1.13906 19.2339 2.53125V10.125H18.8224C8.33748 10.125 -0.0899567 18.7787 0.881173 29.0461C1.57249 36.3393 7.36635 42.2719 14.6745 44.3285L31.5458 49.0746C33.6033 49.66 35.0353 51.4951 35.0353 53.5518C35.0353 56.1305 32.8626 58.2188 30.1797 58.2188H19.2668C17.2587 58.2188 15.2835 57.6334 13.6375 56.5576C12.6335 55.909 11.2838 56.0672 10.4279 56.874L4.69985 62.2529C3.53121 63.3445 3.6958 65.1639 4.99613 66.1289C9.02879 69.1664 14.0655 70.8592 19.2339 70.875V78.4688C19.2339 79.8609 20.419 81 21.8675 81H27.1346C28.5831 81 29.7682 79.8609 29.7682 78.4688V70.8434C37.4385 70.701 44.6314 66.3188 47.1662 59.342C50.7051 49.5967 44.7631 39.5982 35.2328 36.9246V36.9246Z" fill="white"/>
</g>
<defs>
<clipPath id="clip0">
<rect x="0.797852" width="47.4043" height="81" fill="white"/>
</clipPath>
</defs>
</svg>
